<svg xmlns="http://www.w3.org/2000/svg" width="28" height="28" fill="none"><path stroke="#7B78F7" stroke-linecap="round" stroke-linejoin="round" stroke-width="1.5" d="m3.488 17.882 1.245-3.5c.266-.748.4-1.123.7-1.336.301-.213.697-.213 1.489-.213h14.157c.791 0 1.187 0 1.488.213.301.213.434.588.7 1.336l1.246 3.5c.505 1.42.757 2.129.41 2.623-.347.495-1.098.495-2.599.495H5.677c-1.502 0-2.252 0-2.6-.495-.347-.494-.094-1.204.41-2.623zm7.596-5.049L9.334 21m7.583-8.167L18.667 21m-14-4.084h18.667M16.723 6.417A2.722 2.722 0 0 1 14 9.139m2.723-2.722A2.722 2.722 0 0 0 14 3.694m2.723 2.723h1.36M14 9.139a2.722 2.722 0 0 1-2.722-2.722M14 9.139v1.36m-2.722-4.082A2.722 2.722 0 0 1 14 3.694m-2.722 2.723H9.917M14 3.694v-1.36m1.925 2.158.963-.963m-4.813 4.813-.962.962m4.812-.963.963.963m-4.813-4.812-.962-.963"/><path stroke="#7B78F7" stroke-linecap="round" stroke-width="1.5" d="M17.5 25.667c-1.237-1.369-1.167-3.5-1.167-4.667M10.5 25.667c1.237-1.369 1.167-3.5 1.167-4.667"/><path stroke="#7B78F7" stroke-linecap="round" stroke-linejoin="round" stroke-width="1.5" d="M2.333 25.666h23.334"/></svg>