<svg xmlns="http://www.w3.org/2000/svg" width="28" height="28" fill="none"><path stroke="#fff" stroke-linecap="round" stroke-linejoin="round" stroke-width="1.5" d="m4.627 6.764.704-1.635c.584-1.356.876-2.035 1.449-2.415.573-.38 1.302-.38 2.76-.38h8.92c1.458 0 2.187 0 2.76.38s.865 1.059 1.45 2.415l.703 1.635c.953 2.212 1.43 3.318.92 4.11-.51.793-1.7.793-4.076.793H7.783c-2.377 0-3.565 0-4.075-.793-.51-.792-.034-1.898.919-4.11z"/><path stroke="#fff" stroke-linecap="round" stroke-linejoin="round" stroke-width="1.5" d="M5.25 11.666V17.5c0 2.2 0 3.3.683 3.983.55.55 1.37.657 2.817.678m14-10.495V17.5c0 2.2 0 3.3-.683 3.983-.55.55-1.37.657-2.817.678m-4.084-5.828-3.026 3.579c-.37.479-.554.718-.44.903.115.185.448.185 1.114.185h2.372c.666 0 .999 0 1.113.185.115.185-.07.424-.44.903l-3.045 3.579M11.667 2.333 10.5 11.667m5.833-9.334 1.167 9.334M4.667 7h18.666"/></svg>