<svg xmlns="http://www.w3.org/2000/svg" width="28" height="28" fill="none"><path stroke="#fff" stroke-linecap="round" stroke-linejoin="round" stroke-width="1.5" d="M10.5 2.333v3.5m7-3.5v3.5M14 21v4.667m.81-15.751-2.44 2.538c-.261.272-.074.663.352.735l2.556.434c.454.078.628.51.31.775l-3.027 2.518"/><path stroke="#fff" stroke-width="1.5" d="M16.69 5.833h-5.382c-2.494 0-3.742 0-4.43.814-.69.814-.5 2.064-.121 4.563l.611 4.024C7.975 19.231 9.666 21 14 21s6.025-1.77 6.632-5.766l.61-4.024c.38-2.5.57-3.749-.12-4.563-.689-.814-1.936-.814-4.43-.814z"/></svg>