<svg xmlns="http://www.w3.org/2000/svg" width="73" height="72" fill="none"><path stroke="#7B78F7" stroke-width="3" d="M42.984 48c0-5.657 0-8.485 1.758-10.243C46.499 36 49.328 36 54.984 36c5.657 0 8.486 0 10.243 1.757 1.757 1.758 1.757 4.586 1.757 10.243s0 8.485-1.757 10.243C63.47 60 60.641 60 54.984 60s-8.485 0-10.242-1.757c-1.758-1.758-1.758-4.586-1.758-10.243z"/><path stroke="#7B78F7" stroke-linecap="round" stroke-width="3" d="M42.984 48V35.588c0-11 7.547-20.33 18-23.588"/><path stroke="#7B78F7" stroke-width="3" d="M6.984 48c0-5.657 0-8.485 1.758-10.243C10.499 36 13.327 36 18.984 36c5.657 0 8.486 0 10.243 1.757 1.757 1.758 1.757 4.586 1.757 10.243s0 8.485-1.757 10.243C27.47 60 24.641 60 18.984 60S10.5 60 8.742 58.243C6.984 56.485 6.984 53.657 6.984 48z"/><path stroke="#7B78F7" stroke-linecap="round" stroke-width="3" d="M6.984 48V35.588c0-11 7.547-20.33 18-23.588"/></svg>